<?xml version="1.0" encoding="utf-8"?>
<!-- Generator: Adobe Illustrator 21.1.0, SVG Export Plug-In . SVG Version: 6.00 Build 0)  -->
<svg version="1.1" id="Layer_1" focusable="false" xmlns="http://www.w3.org/2000/svg" xmlns:xlink="http://www.w3.org/1999/xlink"
	 x="0px" y="0px" width="496px" height="512px" viewBox="0 0 496 512" style="enable-background:new 0 0 496 512;"
	 xml:space="preserve">
<style type="text/css">
	.st0{fill:#FFFFFF;}
</style>
<path class="st0" d="M248,8C111,8,0,119,0,256s111,248,248,248s248-111,248-248S385,8,248,8z M369.8,177.9l-40.7,191.8
	c-3,13.6-11.1,16.9-22.4,10.5l-62-45.7l-29.9,28.8c-3.3,3.3-6.1,6.1-12.5,6.1l4.4-63.1l114.9-103.8c5-4.4-1.1-6.9-7.7-2.5l-142,89.4
	l-61.2-19.1c-13.3-4.2-13.6-13.3,2.8-19.7l239.1-92.2C363.7,154.4,373.4,161.1,369.8,177.9z"/>
</svg>
